<?xml version="1.0" encoding="utf-8"?>
<!-- Generator: Adobe Illustrator 21.0.0, SVG Export Plug-In . SVG Version: 6.00 Build 0)  -->
<svg version="1.1" id="Layer_1" xmlns="http://www.w3.org/2000/svg" xmlns:xlink="http://www.w3.org/1999/xlink" x="0px" y="0px"
	 viewBox="0 0 154.2 468.8" style="enable-background:new 0 0 154.2 468.8;" xml:space="preserve">
<style type="text/css">
	.st0{fill:url(#SVGID_1_);}
	.st1{fill:url(#SVGID_2_);}
	.st2{fill:#796960;}
	.st3{fill:#596F92;}
	.st4{fill:#CD8C60;}
	.st5{fill:#354969;}
	.st6{fill:#ECB584;}
	.st7{fill:#DB9769;}
	.st8{fill:url(#SVGID_3_);}
	.st9{fill:#78461B;}
	.st10{fill:#5B3617;}
	.st11{fill:#4C2E14;}
	.st12{fill:#462A13;}
	.st13{fill:#B5673B;}
	.st14{fill:#683D19;}
	.st15{opacity:0.69;fill:#E5F3FF;}
	.st16{opacity:0.69;fill:#FFFFFF;}
	.st17{fill:#3D2611;}
	.st18{fill:#F2D2A9;}
	.st19{fill:url(#SVGID_4_);}
	.st20{fill:#E09C6F;}
	.st21{fill:#4A3123;}
	.st22{fill:#7694C5;}
	.st23{fill:#412C25;}
	.st24{fill:#CFD1D2;}
	.st25{fill:#AFB2BA;}
	.st26{fill:#9EA1A8;}
	.st27{fill:#96ADD2;}
	.st28{fill:url(#SVGID_5_);}
	.st29{fill:url(#SVGID_6_);}
	.st30{fill:url(#SVGID_7_);}
</style>
<g>
	<linearGradient id="SVGID_1_" gradientUnits="userSpaceOnUse" x1="72.8319" y1="336.4778" x2="99.7066" y2="271.7516">
		<stop  offset="0" style="stop-color:#B6A28B"/>
		<stop  offset="1" style="stop-color:#8F8169"/>
	</linearGradient>
	<path class="st0" d="M35.5,261.5c0,0,15.1,94.2,28,118.5c0,0,7.9,12,5.2,18c-2.7,6-6.2,10.9-2.3,24.7c3.9,13.7,15.9,43,15.9,43
		l4,3.2L73.2,300.4l7.2,3.2l1.7-24.3l-18.9-12L35.5,261.5z"/>
	<linearGradient id="SVGID_2_" gradientUnits="userSpaceOnUse" x1="86.541" y1="342.1862" x2="113.4787" y2="277.3081">
		<stop  offset="0" style="stop-color:#B6A28B"/>
		<stop  offset="1" style="stop-color:#8F8169"/>
	</linearGradient>
	<path class="st1" d="M107.2,293.4c0,0-2.8,94.7-11.8,109.9l-54.5,47.6v-2.5c0,0,19.8-40.2,27.8-42.3c8-2.1,20-5.6,17.7-13.7
		c-4-14.3-9-74.3-9.3-90.2c0-1.8-1.4-16.5-1.4-16.5l6.3-6.3L107.2,293.4z"/>
	<path class="st2" d="M73.2,300.4c0.3-2.4,0.6-4.8,0.9-7.1l1-7.1l0.5-3.6l0.3-1.8l0.1-0.9l0.1-0.4l0-0.2l0,0l0-0.2l0,0l0,0l0,0
		c0.1-0.1,0.2-0.2,0.3-0.3c0.1,0,0.1,0,0.2,0c0.3,0,0.4,0.1,0.6,0.1c0.2,0,0.3,0.1,0.5,0.2c0.3,0.1,0.6,0.2,0.9,0.3
		c0.6,0.2,1.1,0.5,1.7,0.7c1.1,0.5,2.2,1.1,3.3,1.6l0.3,0.2l-0.1,0.4l-3.2,10c-1.1,3.3-2.2,6.6-3.4,9.9l-0.1,0.2l-0.2-0.1
		C75.7,301.6,74.4,301,73.2,300.4z M73.2,300.4c1.3,0.5,2.7,1.1,4,1.6l-0.2,0.1c0.9-3.4,2-6.7,2.9-10.1l3.1-10l0.2,0.5l-3.3-1.6
		c-0.5-0.3-1.1-0.5-1.6-0.8c-0.3-0.1-0.5-0.2-0.8-0.3c-0.2-0.1-0.6-0.2-0.7-0.2c0,0,0,0,0,0c0.1,0,0.2-0.1,0.2-0.2l0,0l0,0l0,0
		c0,0,0.1-0.3,0-0.2l0,0.1l0,0.3L77,280l-0.1,0.9l-0.3,1.8c-0.2,1.2-0.4,2.4-0.6,3.5l-1.3,7.1C74.1,295.7,73.7,298,73.2,300.4z"/>
	<path class="st3" d="M0,133.9c0,0,77.2-34.1,151-31.7c0,0,16.6,106.2-26.3,125c0,0-19.9-16.6-27.5-28.2c0,0-27.7,25.3-54.9,30.4
		C42.3,229.4,1,212.1,0,133.9z"/>
	<polygon class="st4" points="52.1,100.8 49.8,116.6 79,169.6 90,103.3 	"/>
	<path class="st3" d="M50.1,109.4l-1.8,7.6c0,0,16.1,47.8,33.3,59.5c17.2,11.7,6.7-23.6,6.7-23.6s-35.4-34.8-37.3-44L50.1,109.4z"/>
	<path class="st5" d="M110.8,265.2c-2.4,3.3-8.5,4.6-9.5,9c0,2.9-4.8,1-7.7,1c-5.8-1.9-4.8-7.7-3.9-12.6c-11.6,10.7-31,1-44.6-4.8
		c-2.4-1.2-4.6-3.4-6.1-6.1c-1.3,1.3-2.8,2.5-4.5,3.6c-0.2,0.1,0.5,0,0.3,0.1c0.6,3.3,0.8,6,1.4,6c19.9,0.3,71,31.9,71,31.9
		l3.5-14.7C110.8,278.6,108.6,273.7,110.8,265.2z"/>
	<path class="st3" d="M107.2,187.2c0,0-65.3,24.1-64.1,36.6c0,0.4,0,0.7,0.1,1l8.3-8.4l-2,11c0,0-1,15-10.5,24.3
		c1.5,2.7,3.7,4.9,6.1,6.1c13.6,5.8,32.9,15.5,44.6,4.8c-1,4.8-1.9,10.7,3.9,12.6c2.9,0,7.7,1.9,7.7-1c1-4.4,6.9-5.3,9.4-8.6
		c0.8-1.5,1-4.3,2.3-6.1c9.9-13.3,12.7-45.7,12.7-45.7L107.2,187.2z"/>
	<polygon class="st3" points="94.8,102.4 97.7,105.9 103,135.7 96.4,153.6 90.9,155.1 82.5,120.9 78.1,109.4 86.3,99.1 	"/>
	<path class="st4" d="M87.5,108.8c0,0-2.2,10.8-2.2,10.8c0,0-10.2-8.2-10.2-8.2L87.5,108.8z"/>
	<g>
		<path class="st6" d="M102.3,63.9c0,0,6.2-4.8,7.5-4.4c1.3,0.4,4.9,5.6,2.6,10.3c-2.3,4.7-11,3-11,3L102.3,63.9z"/>
		<path class="st7" d="M56.9,54.3c0,0-2.6-7.4-3.8-7.8c-1.3-0.3-7.2,2-7.8,7.2c-0.7,5.1,7.6,8.6,7.6,8.6L56.9,54.3z"/>
		<path class="st7" d="M62.2,30.8c0,0-2.3,20.5-10.3,30.5l-2.4,16.4l26.4,25.8l25.1-17.3l2.1-13.8c0,0-0.4-23,7.4-33.4l3-7.2
			l-9.5-8.4L72.7,14l-10.8,7.6L62.2,30.8z"/>
		<path class="st6" d="M103.2,72.4c0,0-0.4-23,7.4-33.4l3-7.2l-9.5-8.4l-13.7-4.1L88,30.7c0,0-4,1.8-5,5.1
			c-0.9,3.3-5.2,19.5-6.2,20.8c-1.1,1.3-1.3,6.2-10.3,5.9c0,0,7.2,8.7,13.2,8.1c0.2,0,0.3,0,0.3,0c-0.1,0-0.2,0-0.3,0
			c-0.7,0.1-2.6,0.6-2.8,2.7c-0.3,2.6-6.3,10-6.3,10L50.2,72.8l-0.7,4.9l26.4,25.8l25.1-17.3L103.2,72.4z"/>
		<path class="st7" d="M77.3,55.7c0.1,0.1,6.2-0.4,7.1,1.5c0,0-1.2,13.2,13.3,9.9l-3-0.4l-3.5-0.4l-3.1-2.1l-2.6-5.2l0.4-3.3l-3.5-2
			l-4.9-0.1L77.3,55.7z"/>
		
			<linearGradient id="SVGID_3_" gradientUnits="userSpaceOnUse" x1="-250.7277" y1="9.862" x2="-228.3902" y2="9.862" gradientTransform="matrix(0.8748 0.404 -0.4118 0.8917 295.4189 143.0152)">
			<stop  offset="0" style="stop-color:#B5673B"/>
			<stop  offset="1" style="stop-color:#4F1306"/>
		</linearGradient>
		<path class="st8" d="M82.4,36.6c0,0-3.8,20.1-6.8,23.2c-3,3-6.6,3.2-6.6,3.2s5.9,10,18.2,5.9c0,0-12.3,8.5-20.7-6.4
			c0,0,7,0.6,9.2-4.6C78,52.6,77.5,53.8,82.4,36.6z"/>
		<path class="st7" d="M87.9,43c0,0-0.7,0.4-1.2,2.7c-0.6,2.3-1.3,5.7-1.3,5.7l19.6,0.3L87.9,43z"/>
		<g>
			<path class="st9" d="M92.7,23.5c-0.4,0.8-1.9,2.2-0.2,2.9c5.5,3.3,12.8,2.5,16.6-1.8c0.4-0.4,0.8-0.9,1.2-1.4
				c-6.7-6-13.8-18.5-9.6-23.1c0,0-19.9,0.2-33.3,9.3c-0.3,1.3-0.3,2.5,0.1,3.5C70.5,22,82.5,24.1,92.7,23.5z"/>
			<path class="st10" d="M110.9,23.6c-0.2-0.2-0.4-0.3-0.6-0.5c-0.3,0.5-0.7,1-1.2,1.4c-3.8,4.3-11.1,5.2-16.6,1.8
				c-1.7-0.7-0.1-2,0.2-2.9C82.5,24.1,70.5,22,67.5,12.8c-0.4-1-0.4-2.2-0.1-3.5c-2.8,1.9-5.4,4.3-7.4,7.1c0,0-3.1,9.1,1.9,15.8
				c0,0,1-8.8,3.7-9.3c2.7-0.5,15.9,2.3,22.3,7.8c0,0,18,0.4,19.5,1.4s2.8,6.7,2.3,8l5.8-4.6C115.5,35.5,117.8,29.4,110.9,23.6z"/>
			<path class="st11" d="M100.7,0c0,0-0.7,0.2-1.9,0.5c-1.2,0.3-2.9,0.9-4.9,1.5c-2,0.6-4.4,1.4-6.9,2.3c-2.5,0.9-5.1,1.9-7.7,3.1
				c-1.3,0.6-2.6,1.2-3.8,1.9c-1.2,0.6-2.4,1.4-3.5,2.1c-0.6,0.4-1,0.8-1.6,1.1c-0.5,0.4-1,0.8-1.4,1.2c-0.4,0.4-0.9,0.8-1.2,1.2
				c-0.2,0.2-0.4,0.4-0.5,0.6c-0.2,0.2-0.3,0.4-0.5,0.7c-0.3,0.4-0.5,0.9-0.7,1.3c-0.3,0.4-0.3,0.9-0.5,1.3
				c-0.2,0.8-0.3,1.6-0.2,2.2c0,0.6,0.1,1.1,0.2,1.4c0.1,0.3,0.1,0.5,0.1,0.5s-0.1-0.2-0.2-0.5c-0.1-0.3-0.3-0.8-0.3-1.4
				c-0.1-0.6-0.1-1.4,0.1-2.3c0.2-0.9,0.5-1.8,1.1-2.7c0.1-0.2,0.3-0.5,0.4-0.7c0.2-0.2,0.4-0.4,0.5-0.7c0.3-0.5,0.8-0.9,1.2-1.3
				c0.4-0.4,0.9-0.8,1.4-1.3c0.5-0.4,1-0.8,1.6-1.2c1.1-0.8,2.3-1.5,3.5-2.2c1.2-0.7,2.5-1.3,3.8-1.9c2.6-1.2,5.3-2.2,7.8-3
				c2.5-0.9,4.9-1.5,7-2.1c2.1-0.6,3.8-0.9,5-1.2C100,0.1,100.7,0,100.7,0z"/>
			<path class="st11" d="M99.4,4c0,0-0.5,0.2-1.3,0.6c-0.8,0.4-2,0.9-3.4,1.6c-1.4,0.7-3,1.5-4.6,2.5c-1.7,1-3.4,2-5.1,3.2
				c-0.8,0.6-1.6,1.2-2.4,1.9c-0.8,0.6-1.5,1.3-2.1,2c-0.3,0.3-0.6,0.7-0.9,1c-0.3,0.4-0.6,0.7-0.8,1.1c-0.5,0.7-0.9,1.4-1.2,2.1
				c-0.1,0.4-0.3,0.7-0.4,1c-0.1,0.3-0.2,0.6-0.2,1c0,0.3-0.1,0.6-0.1,0.9c0,0.3,0,0.5,0,0.7c0,0.4,0.1,0.8,0.1,1c0,0.2,0,0.4,0,0.4
				s0-0.1-0.1-0.4c0-0.2-0.2-0.6-0.2-1c0-0.2,0-0.5-0.1-0.8c0-0.3,0-0.6,0-0.9c0-0.6,0.2-1.4,0.4-2.1c0.2-0.8,0.6-1.5,1.1-2.3
				c0.2-0.4,0.5-0.8,0.8-1.2c0.3-0.4,0.6-0.8,0.9-1.1c0.7-0.7,1.4-1.5,2.1-2.1c0.8-0.7,1.6-1.3,2.4-1.9C86.2,10,88,8.9,89.7,8
				c1.7-0.9,3.4-1.6,4.8-2.2c1.4-0.6,2.7-1,3.5-1.3C98.9,4.2,99.4,4,99.4,4z"/>
			<path class="st11" d="M101.9,12c0,0-0.2,0.3-0.6,0.8c-0.4,0.5-0.9,1.3-1.6,2.1c-0.7,0.9-1.5,1.9-2.3,3c-0.9,1.1-1.8,2.2-2.7,3.4
				c-0.9,1.1-1.8,2.3-2.7,3.3c-0.8,1.1-1.7,2.1-2.3,2.9c-0.3,0.4-0.6,0.9-0.9,1.2c-0.2,0.4-0.4,0.7-0.6,1c-0.1,0.3-0.2,0.5-0.3,0.7
				c0,0.2,0,0.3,0,0.3s0-0.1,0-0.3c0-0.2,0.1-0.4,0.2-0.7c0.2-0.6,0.6-1.5,1.2-2.4c0.6-0.9,1.3-2,2.1-3.1c0.8-1.1,1.7-2.3,2.6-3.4
				c0.9-1.1,1.9-2.3,2.8-3.3c0.9-1,1.8-2,2.5-2.8c0.7-0.8,1.4-1.4,1.9-1.9C101.6,12.3,101.9,12,101.9,12z"/>
			<path class="st11" d="M107.6,20.4c0,0-0.4,0.8-1.1,1.8c-0.7,1.1-1.7,2.5-2.7,3.8c-1.1,1.3-2.2,2.6-3,3.6
				c-0.9,0.9-1.5,1.5-1.5,1.5s0.4-0.8,1.1-1.8c0.7-1.1,1.7-2.5,2.7-3.8c1.1-1.3,2.2-2.6,3-3.6C106.9,21,107.6,20.4,107.6,20.4z"/>
			<path class="st11" d="M113.2,26c0,0-0.1,0.6-0.3,1.4c-0.1,0.4-0.3,0.9-0.6,1.3c-0.2,0.5-0.6,0.9-0.9,1.4
				c-0.4,0.4-0.7,0.9-1.2,1.2c-0.2,0.2-0.4,0.3-0.7,0.4c-0.2,0.1-0.5,0.2-0.7,0.3c-0.2,0.1-0.4,0.1-0.6,0.1c-0.2,0-0.3,0-0.5,0
				c-0.3,0-0.4-0.1-0.4-0.1s0.1,0,0.4-0.1c0.1,0,0.2-0.1,0.4-0.2c0.1-0.1,0.3-0.1,0.5-0.3c0.2-0.1,0.3-0.2,0.5-0.4
				c0.2-0.2,0.3-0.3,0.5-0.5c0.2-0.2,0.3-0.4,0.5-0.6c0.2-0.2,0.3-0.4,0.5-0.6c0.3-0.4,0.6-0.9,0.9-1.3c0.3-0.4,0.6-0.8,0.8-1.1
				C112.8,26.4,113.2,26,113.2,26z"/>
		</g>
		<path class="st10" d="M86.3,50.6c0,0,1.1-7.2,1.6-7.6c0.4-0.4,3.4-2.9,3.4-2.9l12.4,4.9l1.3,6.6L86.3,50.6z"/>
		<path class="st10" d="M51.9,61.3c0,0-24.4,21.7,0.8,41.8s45,1.1,48.4-6.3c3.4-7.4,3.9-20.7,2-26.5l-11.9,8.9L79,74l-2.3-0.7
			l-7.6,1.1l-14.3-6.7c0,0-3.5-3.7-2.6-6.8L51.9,61.3z"/>
		<path class="st12" d="M49.8,65.2c0,0,3.4,14.3,16,16.4c0,0,7,1,10.9-5.7c0,0,3.5,8.6,10.9,8.1c7.4-0.5,16.2-11.1,16.2-11.1
			l-25.3,0.9L74.7,73L49.8,65.2z"/>
		<path class="st13" d="M54.5,54.3c0,0-1-4.2-2.4-4.5c-1.4-0.3-5.8,1.9-4.3,5.6c1.5,3.7,5.2,5,4.7,2.5c-0.6-2.5,0.4-2.9,1.3-2.5
			C54.6,55.7,54.6,54.7,54.5,54.3z"/>
		<path class="st14" d="M76.7,73.3l-27-8.1c0,0,5.3,12.7,15,14.9S76.7,73.3,76.7,73.3z"/>
		<path class="st11" d="M52.8,70.7c0,0-0.2,0.3-0.6,0.9c-0.4,0.6-0.8,1.4-1.4,2.3c-0.6,1-1.2,2.1-1.8,3.4c-0.6,1.3-1.3,2.6-1.8,4
			c-0.3,0.7-0.6,1.4-0.8,2.1c-0.3,0.7-0.5,1.4-0.7,2c-0.2,0.7-0.4,1.3-0.6,1.9c-0.2,0.6-0.4,1.2-0.5,1.7c-0.1,0.5-0.3,1-0.4,1.5
			c-0.1,0.4-0.2,0.8-0.2,1.2c-0.1,0.6-0.2,1-0.2,1s0-0.4,0-1c0-0.3,0-0.7,0.1-1.2c0-0.5,0.1-1,0.2-1.5c0.1-0.6,0.2-1.2,0.3-1.8
			c0.1-0.6,0.3-1.3,0.5-2c0.2-0.7,0.4-1.4,0.7-2.1c0.2-0.7,0.5-1.4,0.8-2.1c0.3-0.7,0.6-1.4,0.9-2.1c0.3-0.7,0.7-1.3,1-1.9
			c0.7-1.2,1.4-2.4,2.1-3.3c0.7-0.9,1.3-1.6,1.7-2.1C52.5,71,52.8,70.7,52.8,70.7z"/>
		<path class="st11" d="M60.2,79.5c0,0-0.6,1.5-1.5,3.7c-0.4,1.1-0.9,2.4-1.4,3.8c-0.5,1.4-1,2.9-1.5,4.4c-0.3,0.7-0.4,1.5-0.7,2.2
			c-0.2,0.7-0.4,1.5-0.6,2.2c-0.2,0.7-0.3,1.4-0.5,2.1c-0.1,0.7-0.2,1.3-0.3,1.9c-0.1,0.6-0.1,1.1-0.2,1.6c-0.1,0.5-0.1,0.9-0.1,1.2
			c0,0.7,0,1.1,0,1.1s-0.1-0.4-0.2-1.1c0-0.3-0.1-0.8-0.1-1.3c0-0.5,0-1,0-1.6c0-0.6,0.1-1.2,0.1-1.9c0.1-0.7,0.2-1.4,0.3-2.1
			c0.2-0.7,0.3-1.5,0.5-2.3c0.2-0.8,0.4-1.5,0.6-2.3c0.5-1.5,1-3,1.6-4.4c0.6-1.4,1.2-2.6,1.7-3.7c0.5-1.1,1-1.9,1.4-2.5
			C59.9,79.8,60.2,79.5,60.2,79.5z"/>
		<path class="st11" d="M75.6,91.2c0,0,0.1,0.3,0.2,0.8c0.1,0.5,0.3,1.2,0.5,2.1c0.4,1.8,0.8,4.1,1.1,6.5c0.3,2.4,0.5,4.8,0.7,6.6
			c0.1,0.9,0.1,1.7,0.1,2.2c0,0.5,0,0.8,0,0.8s-0.1-0.3-0.2-0.8c-0.1-0.5-0.3-1.2-0.5-2.1c-0.4-1.8-0.8-4.1-1.1-6.5
			c-0.3-2.4-0.5-4.8-0.7-6.6c-0.1-0.9-0.1-1.7-0.1-2.2C75.6,91.5,75.6,91.2,75.6,91.2z"/>
		<path class="st11" d="M86.9,83.4c0,0,0.1,0.4,0.3,1.1c0.1,0.7,0.4,1.7,0.5,3c0.2,1.2,0.4,2.7,0.5,4.2c0.1,1.6,0.1,3.2,0.1,4.9
			c0,0.8-0.1,1.7-0.2,2.5c-0.1,0.8-0.2,1.6-0.3,2.4c-0.1,0.8-0.3,1.5-0.5,2.2c-0.2,0.7-0.4,1.3-0.6,1.9c-0.2,0.6-0.4,1.1-0.6,1.6
			c-0.2,0.5-0.4,0.9-0.6,1.2c-0.3,0.6-0.5,1-0.5,1s0.1-0.4,0.4-1.1c0.1-0.3,0.3-0.7,0.4-1.2c0.1-0.5,0.3-1,0.4-1.6
			c0.1-0.6,0.2-1.3,0.4-1.9c0.1-0.7,0.2-1.4,0.3-2.2c0.1-0.8,0.1-1.6,0.2-2.4c0-0.8,0.1-1.6,0.1-2.4c0-0.8,0.1-1.6,0-2.4
			c0-0.8,0-1.6,0-2.4c0-1.5-0.1-3-0.1-4.2c-0.1-1.2-0.1-2.3-0.2-3C86.9,83.8,86.9,83.4,86.9,83.4z"/>
		<path class="st11" d="M97.8,78.2c0,0,0.5,1.4,1,3.6c0.2,1.1,0.4,2.4,0.6,3.8c0.2,1.4,0.3,2.9,0.3,4.4c0,1.5-0.1,3-0.2,4.4
			c-0.1,0.7-0.2,1.4-0.3,2c-0.1,0.6-0.2,1.2-0.4,1.8c-0.1,0.5-0.3,1-0.4,1.5c-0.2,0.4-0.3,0.8-0.4,1.1c-0.2,0.6-0.4,1-0.4,1
			s0.1-0.4,0.2-1c0.1-0.3,0.1-0.7,0.2-1.2c0.1-0.5,0.1-1,0.2-1.5c0.1-0.5,0.1-1.1,0.2-1.8c0.1-0.6,0.1-1.3,0.2-2
			c0.1-0.7,0.1-1.4,0.1-2.1c0-0.7,0-1.5,0-2.2c0-0.7,0-1.5,0-2.2c0-0.7-0.1-1.4-0.1-2.1c-0.1-1.4-0.2-2.7-0.3-3.8
			c-0.1-1.1-0.2-2-0.3-2.7C97.9,78.5,97.8,78.2,97.8,78.2z"/>
		<path class="st14" d="M76.9,73.3l28-2.5c0,0-7.8,11.4-17.7,11.6S76.9,73.3,76.9,73.3z"/>
		<path class="st12" d="M50.6,95.3l7.5,11.5c0,0,5.1,2.5,5.7,2.7c0.6,0.1,1.8-2.8,1.8-2.8L52.4,94.4L50.6,95.3z"/>
		<path class="st12" d="M82.9,110.9c0.1,0,3.9-8.6,4.4-8.9c0.4-0.3-1.2,7.8-1.2,7.8L82.9,110.9z"/>
		<path class="st7" d="M105.3,64.8c0,0,3.2-2.9,4.5-2.4c1.3,0.5,3.8,4.8,0.5,7.1c-3.3,2.2-7.1,1.3-5.3-0.5c1.8-1.7,1.3-2.6,0.3-2.8
			C104.4,65.9,105,65,105.3,64.8z"/>
		<path class="st7" d="M51.7,93.1c-0.5,0.6-0.9,1.4-1.1,2.2l1.1,1.1C51.2,95.6,51.5,94.4,51.7,93.1z"/>
		<path class="st6" d="M91,130.9c0,0,2.1,0.4,2.7-12.6c0.6-13,0.4-19.2,0.4-19.2s-6.1,1.5-7.2,3.3c-1.1,1.8-2.7,10.8-2.7,10.8
			s-25.7-22.9-28-23.6c0,0-2.7,1-4.4,3.4c-0.2,1.3-0.5,2.5,0,3.3l1.5,1.4c3.5,2.9,7.9,5,9.9,9.4l0.2,0.2c0,0-0.1,0-0.1,0.1
			c0.1,0.2,0.2,0.5,0.3,0.7c-0.1-0.2-0.2-0.5-0.3-0.7c-0.7,0.4-5,3.1-5.4,4.8l3,5.5c0,0-3.7,4.6-4.1,12.4c0,0,14.1,16.3,18.2,13.6
			l5.3,14c0,0,15-3.4,16.2-7.6L91,130.9z"/>
		<path class="st7" d="M53.2,97.7l9.9,9.4C61.1,102.7,56.7,100.6,53.2,97.7z"/>
		<path class="st10" d="M62.6,41.4l1.7-6.3l1.3-1c0,0,13.3,3.1,14.1,3.1c0.8,0,3.5-0.9,3.5-0.9s-3.3,9.8-3.6,10.2l-1.7,1.9
			L62.6,41.4z"/>
		<g>
			<g>
				<path class="st15" d="M75,45.7l-2.5-2.1l-3-1.2l-3.1,0l-2.2,0.3c0,0.1-1.3,1.5-2.2,2.5c4.8,0.8,9.7,2.5,14.4,2.7L75,45.7z"/>
				<path class="st16" d="M76.6,48.1l-0.2-0.2c-4.7-0.2-9.6-1.9-14.4-2.7c-0.2,0.2-0.3,0.3-0.5,0.5c5.3,0.3,10.2,1.7,15,3L76.6,48.1
					z"/>
				<path class="st16" d="M76.5,51.5c-5.7-0.9-11.5-2-17.1-2.7l-0.7,1.2c0,0,0,0.2,0.1,0.6c5.6,1.1,11.7,2.1,17.4,3.1L76.5,51.5z"/>
				<path class="st15" d="M58.9,50.5c0.2,1.2,0.7,3.7,0.5,3.7c-0.2,0,1.9,3.7,1.9,3.7l3.9,2.4l3.6,0.3c0,0,3.4-1.2,3.5-1.3
					c0.1-0.1,3.8-3.7,3.8-3.7l0.2-2C70.6,52.6,64.4,51.6,58.9,50.5z"/>
				<path class="st15" d="M76.5,51.1l0-2.4c-4.9-1.3-9.7-2.7-15-3c-0.4,0.4-0.6,0.7-0.6,0.7l-1.5,2.4c5.6,0.7,11.4,1.9,17.1,2.7
					L76.5,51.1z"/>
			</g>
			<g>
				<path class="st15" d="M101.4,52.6l-2.5-2.1l-3-1.2l-3.1,0l-2.2,0.3c0,0.1-1.3,1.5-2.2,2.5c4.8,0.8,9.7,2.5,14.4,2.7L101.4,52.6z
					"/>
				<path class="st16" d="M103,55l-0.2-0.2c-4.7-0.2-9.6-1.9-14.4-2.7c-0.2,0.2-0.3,0.3-0.5,0.5c5.3,0.3,10.2,1.7,15,3L103,55z"/>
				<path class="st16" d="M102.9,58.3c-5.7-0.9-11.5-2-17.1-2.7l-0.7,1.2c0,0,0,0.2,0.1,0.6c5.6,1.1,11.7,2.1,17.4,3.1L102.9,58.3z"
					/>
				<path class="st15" d="M85.3,57.3c0.2,1.2,0.7,3.7,0.5,3.7c-0.2,0,1.9,3.7,1.9,3.7l3.9,2.4l3.6,0.3c0,0,3.4-1.2,3.5-1.3
					c0.1-0.1,3.8-3.7,3.8-3.7l0.2-2C97,59.4,90.8,58.5,85.3,57.3z"/>
				<path class="st15" d="M102.9,58l0-2.4c-4.9-1.3-9.7-2.7-15-3c-0.4,0.4-0.6,0.7-0.6,0.7l-1.5,2.4c5.6,0.7,11.4,1.9,17.1,2.7
					L102.9,58z"/>
			</g>
			<path class="st17" d="M107.5,55.9c0,0-2.8-1.1-4.1-1.5c-0.9-2.3-2.7-4.2-5.2-5.2c-4.9-2-10.5,0.3-12.5,5.2
				c-0.1,0.1-0.1,0.3-0.2,0.4c-3.1-2.2-6.4-1.9-8.1-1.6c0.7-4.3-1.6-8.7-5.8-10.4c-3.4-1.4-7.1-0.7-9.7,1.4l-4.4-0.3l1.6,4
				c0,0,0,0,0,0c-2,4.9,0.3,10.5,5.2,12.5c4.9,2,10.5-0.3,12.5-5.2c0.1-0.2,0.1-0.4,0.2-0.6c1.1-0.3,4.9-1.1,8.1,1.5
				c-0.9,4.4,1.4,8.9,5.7,10.7c4.9,2,10.5-0.3,12.5-5.2c0.4-0.9,0.6-1.9,0.7-2.8L107.5,55.9z M64.8,59.1c-4.2-1.7-6.2-6.6-4.4-10.7
				c1.7-4.2,6.6-6.2,10.7-4.4c4.2,1.7,6.2,6.6,4.4,10.7C73.8,58.9,68.9,60.9,64.8,59.1z M91.3,65.6c-4.2-1.7-6.2-6.6-4.4-10.7
				c1.7-4.2,6.6-6.2,10.7-4.4c4.2,1.7,6.2,6.6,4.4,10.7C100.3,65.3,95.5,67.3,91.3,65.6z"/>
		</g>
		<g>
			<path class="st10" d="M95.3,59.1c0,0-1.7,1.4-6.3-0.9c0,0,0.5-3.7,1.7-3.8c1.1-0.2,1.7,1.7,1,3.6C91.7,57.9,95,59.2,95.3,59.1z"
				/>
			<path class="st10" d="M95.4,58.9c0,0-0.1-0.4-0.3-1.1c-0.1-0.3-0.3-0.7-0.4-1.1c-0.2-0.4-0.4-0.8-0.7-1.2
				c-0.1-0.2-0.3-0.4-0.4-0.5c-0.1-0.2-0.3-0.3-0.5-0.5c-0.2-0.1-0.4-0.2-0.6-0.3c-0.2,0-0.4-0.1-0.6-0.1c-0.2,0-0.4,0-0.5,0
				c-0.1,0-0.3,0.1-0.4,0.1c-0.2,0.1-0.3,0.1-0.3,0.1l0,0c0,0,0.1,0,0.3,0c0.1,0,0.2,0,0.3,0c0.1,0,0.3,0.1,0.4,0.1
				c0.1,0,0.3,0.1,0.5,0.2c0.1,0.1,0.3,0.2,0.5,0.3c0.2,0.1,0.3,0.2,0.5,0.4c0.2,0.1,0.3,0.3,0.5,0.5c0.6,0.7,1,1.5,1.3,2.1
				C95.3,58.4,95.4,58.9,95.4,58.9L95.4,58.9z"/>
		</g>
		<g>
			<path class="st10" d="M64.3,51.6l0.5,0c0,0,0.4-3.8,2.1-3.1c1.7,0.6,0.8,2.8,0.5,3.7l2,0.7c0,0-1.4,1-2.9,0.5
				C65,52.9,64.3,51.6,64.3,51.6z"/>
			<path class="st10" d="M69.9,52.8c0,0,0.2-0.5,0.2-1.4c0-0.4,0.1-0.9,0-1.4c-0.1-0.5-0.3-1-0.6-1.4c-0.2-0.2-0.4-0.3-0.6-0.5
				c-0.2-0.1-0.4-0.2-0.7-0.2c-0.2,0-0.5-0.1-0.7-0.1c-0.2,0-0.4,0-0.6,0.1c-0.2,0-0.4,0.1-0.5,0.2c-0.1,0.1-0.3,0.2-0.4,0.2
				c-0.2,0.2-0.3,0.3-0.3,0.3l0,0c0,0,0.4-0.3,1.1-0.4c0.2,0,0.4,0,0.5,0c0.2,0,0.4,0,0.6,0.1c0.2,0,0.4,0.1,0.6,0.2
				c0.2,0.1,0.4,0.2,0.5,0.3c0.3,0.3,0.5,0.8,0.6,1.2c0.1,0.5,0.1,0.9,0.1,1.3C70,52.3,69.9,52.8,69.9,52.8L69.9,52.8z"/>
		</g>
		<path class="st18" d="M76.5,63.7c-0.1,0-0.1,0.1-0.2,0.2c-0.1,0.1-0.1,0.3,0,0.5c0.2,0.4,0.6,0.7,1,0.8c1,0.4,2,0.7,3,0.8
			c0.6,0,1.6-0.1,1.5-0.9c-0.1-0.5-0.9-1-1.4-1.2C79.3,63.3,77.6,63,76.5,63.7z"/>
		
			<linearGradient id="SVGID_4_" gradientUnits="userSpaceOnUse" x1="-121.522" y1="42.941" x2="-123.249" y2="36.1903" gradientTransform="matrix(0.9581 0.2865 -0.2865 0.9581 203.5994 81.4251)">
			<stop  offset="0" style="stop-color:#462A13"/>
			<stop  offset="1" style="stop-color:#000000"/>
		</linearGradient>
		<path class="st19" d="M74.9,84.2c-2.7,0-7.8-0.6-7.6-0.5c1.3,0.6,2.2,2,2.6,2.8c0.1,0.2,0.2,0.4,0.3,0.6c0,0,0,0,0,0l0,0
			c1.1,2.2,2.9,4.7,2.9,4.7c2.2-5,6.5-3.9,7.2-5c0.7-1.1,2.4-2.4,2.4-2.4C81,84.3,77.7,84.2,74.9,84.2z"/>
		<path class="st12" d="M72.3,80.9c0,0,6.7-0.9,7.7,0c0,0-0.7-1.4-8.3-0.6C64.1,81,72.3,80.9,72.3,80.9z"/>
		<path class="st18" d="M52.1,95c0,0,1.5-3,4.3-4.1c0,0,2.1,2.6,1.9,3.2c-0.2,0.6-2.2,2.5-2.8,2.4C54.8,96.3,52.1,95,52.1,95z"/>
		<path class="st6" d="M60.8,117.7c0,0-3.7,4.9-3.6,5.2s0.7,3.8,0.7,3.8L60.8,117.7z"/>
		<path class="st20" d="M58.4,131.9c0,0,1.4-13,9.2-19.4l-4.3-5.2c0,0-5.4,3.4-5.6,4.9l3,5.5c0,0-3.7,4.6-3.6,5.2l0.3,1.9
			c0,0-1.1,4.3-0.8,5.2L58.4,131.9z"/>
		<path class="st20" d="M94.1,100.8c0,0-6.6-1.5-9.2,12.7l-0.8-0.3c0,0,1.9-10,2.7-10.8c0.8-0.8,1.9-1.9,7.2-3.3L94.1,100.8z"/>
		<path class="st20" d="M93.8,115c0,0,0.1,13.4-2.8,15.9l3.7,13L90,131.7C90,131.7,93.1,125.2,93.8,115z"/>
		<path class="st20" d="M63.1,103.3c0,0,3.6-3.3,3.8-3.4C67.1,99.7,65.4,102.8,63.1,103.3z"/>
		<path class="st20" d="M57.8,129.9c0,0,13.6,11.5,19,11.3l2.8,13.3l-0.4,0.6l-4.3-11.5c0,0-2.8,3.6-16.8-12L57.8,129.9z"/>
	</g>
	<path class="st21" d="M86.4,468.8H66.1c0,0,0-3.4,5.2-3.4s11,0.3,11,0.3L86.4,468.8z"/>
	<path class="st21" d="M42.3,445.6c0,0-0.1,1.2,1.7,2.4c0,0,1.8,12.3,1.8,14.6c0,2.3,2.8,2.1,4.3,2.7c1.5,0.6,0.3,3.4,0.3,3.4h-6.2
		l-5.4-13l1.1-4.3l-2.2,0.6l-0.8-2.4C36.9,449.7,40,446.1,42.3,445.6z"/>
	<polygon class="st22" points="38.4,194.5 72.8,179.1 73.9,182.5 	"/>
	<path class="st5" d="M109,141.6c0,0-6.9-3.6-10.6-3c-3.8,0.6-3.8,5.3-3.8,5.3l1.7,5.1C96.4,149.1,99.7,140.8,109,141.6z"/>
	<path class="st23" d="M35.5,261.5c0,0,67.4,30.6,71.7,31.9l0.5-3.9l-73.3-34.1C34.5,255.3,35.5,259.1,35.5,261.5z"/>
	<path class="st5" d="M83.8,208.9l12.6-11.1c0,0,1.3,6.7,8.9,11.1c0,0,13.7,13.9,17.9,17c0,0-14.9-16.6-15.3-17.9
		c-0.4-1.3,19.1-24.3,20.3-25.4c1.2-1.1,7,4.6,7,4.6s-4.8-6.5-7.4-7c-2.7-0.4-30.5,12.8-30.5,12.8L80.6,204l2.7,4L83.8,208.9z"/>
	<polygon class="st20" points="66.9,184.9 90.5,176.7 99.7,193.9 75,212.6 	"/>
	<g>
		<polygon class="st24" points="76.6,275.3 73.9,281.5 84.7,285 86.6,278.1 		"/>
		<polygon class="st23" points="77.1,276.2 74.7,281 84,284.1 85.4,278.8 		"/>
		<polygon class="st24" points="76,278.1 77.3,278.5 77.1,279.1 75.6,278.5 		"/>
	</g>
	<path class="st6" d="M90,131.7c0.4,1,35.6,49.4,35.6,49.4l-20.5,22.2c0,0-16.5-20.2-30.2-59.6L90,131.7z"/>
	<path class="st20" d="M76.8,141.2c0,0,16.4,49,32.2,57.8l-3.9,4.3c0,0-18.5-23.4-30.2-59.6L76.8,141.2z"/>
	<path class="st20" d="M91,130.9c0,0,3.3,7,15.8,24.2c0,0-13.2-16-16.8-23.5L91,130.9z"/>
	<path class="st5" d="M43.3,229.4c0,0,17.3-5.6,21.5-8.1c0,0-2.4-8.9-4.2-10.9c-1.8-2-7.7-12.2-8-16.4c-0.2-4.2,0.6-5.6,0.6-5.6
		s0.5,9.9,6.4,14.9c5.8,5,7.3,16.9,7.3,16.9v1.3C66.9,221.4,63.6,223.8,43.3,229.4z"/>
	<path class="st25" d="M122.6,184.1c-3.9-1.9-5.8,2.9-8.7,2.9c5.4-4.5,7.5-14.9,2.2-21c-2.8,3.4-9.9,10-26.9,17.5
		c0,0,5.3,4.3,6.3,8.7c1.4,6,3.4,10,5.2,12.4C109.4,201.2,116,190.7,122.6,184.1z"/>
	<path class="st26" d="M128,178.1c-3.9-2.7-6.4-2.7-6.7-7.7c-0.3-5-3.6-6.8-3.6-6.8s-0.4,0.9-1.6,2.4c5.2,6.1,3.2,16.5-2.2,21
		c2.9,0,4.8-4.8,8.7-2.9c-6.6,6.6-13.2,17-21.9,20.5c2.1,2.8,4.1,3.5,4.8,3.3c1.3-0.5,21.5-26.1,22.5-26.9
		C129,180.1,131.9,180.8,128,178.1z"/>
	<path class="st26" d="M82.8,202c0.6,3.3,0.5,6.3-1.8,8.3c-3.9,3.9,0-6.8-4.8-9.7c0,4.8,0,8.7-1,13.6c-1,1-1-1.9-1.9-1
		c-1,2.9-1,6.8-4.8,5.8c-3.9-1.9-5.4-5.7-7.3-9.6c2.6,5.2,3.4,10.9,4.6,11.5c1.6,0.8,6.4,2.7,8.4-1.6c2-4.4,3.5-3,6.2-4.8
		C82.4,213,86.1,210.5,82.8,202z"/>
	<path class="st25" d="M68.3,219c3.9,1,3.9-2.9,4.8-5.8c1-1,1,1.9,1.9,1c1-4.8,1-8.7,1-13.6c4.8,2.9,1,13.6,4.8,9.7
		c2.4-2,2.5-4.9,1.8-8.3c-0.8-2-2-4.4-3.7-7.2c-8.9-14.5-2.6-17.4-8.4-16c-5.8,1.5-17.4,8.4-17.4,8.4s-0.6,11.6,4.6,17.3
		c0.8,0.9,1.6,2,2.2,3.1c0.5,0.2,1,0.4,1.5,0.8c-0.5-0.3-1-0.6-1.5-0.8c0.4,0.6,0.7,1.2,1,1.8c0,0,0,0,0-0.1c0,0,0,0,0,0.1
		c0,0,0,0,0,0C63,213.3,64.5,217.1,68.3,219z"/>
	<path class="st5" d="M48.3,116.3c0,0,8.6,34.2,11.5,37.7L48.3,116.3z"/>
	<path class="st5" d="M72.8,145c0,0-11.4,7.1-12,10.1c0,0,7.4-5.9,11.3-5c3.9,0.8,6.3,5,6.3,5L72.8,145z"/>
	<path class="st5" d="M98.6,106.4c0,0,11.7,21.1,13.5,33L98.6,106.4z"/>
	<path class="st5" d="M98,208.9c0,0,0.1,38-6.6,48.4C91.4,257.3,100.3,247.4,98,208.9z"/>
	<ellipse class="st27" cx="101.9" cy="215.2" rx="1.6" ry="1.5"/>
	<ellipse class="st27" cx="98.4" cy="249.3" rx="1.6" ry="1.5"/>
	<path class="st5" d="M115.6,219.2c0.1,0.1,5.5,9.1,3.5,18.7c-2,9.6-1,11.8-1,11.8s4.2-10.7,5.9-23.1L115.6,219.2z"/>
	<linearGradient id="SVGID_5_" gradientUnits="userSpaceOnUse" x1="39.9477" y1="259.5632" x2="40.7881" y2="257.5392">
		<stop  offset="0" style="stop-color:#B6A28B"/>
		<stop  offset="1" style="stop-color:#8F8169"/>
	</linearGradient>
	<polygon class="st28" points="38.4,257.2 39,263 40.7,263.8 41.4,258.1 	"/>
	<linearGradient id="SVGID_6_" gradientUnits="userSpaceOnUse" x1="58.57" y1="268.4912" x2="59.3962" y2="266.5013">
		<stop  offset="0" style="stop-color:#B6A28B"/>
		<stop  offset="1" style="stop-color:#8F8169"/>
	</linearGradient>
	<polygon class="st29" points="57.6,266.1 57.3,271.8 58.9,272.5 60.5,267.4 	"/>
	<linearGradient id="SVGID_7_" gradientUnits="userSpaceOnUse" x1="97.8954" y1="286.4028" x2="98.543" y2="284.8431">
		<stop  offset="0" style="stop-color:#B6A28B"/>
		<stop  offset="1" style="stop-color:#8F8169"/>
	</linearGradient>
	<polygon class="st30" points="97.4,284.6 95.9,288.6 97.1,289.1 99.5,285.6 	"/>
</g>
</svg>
