<!DOCTYPE svg PUBLIC "-//W3C//DTD SVG 20010904//EN" "http://www.w3.org/TR/2001/REC-SVG-20010904/DTD/svg10.dtd">
<svg version="1.0" xmlns="http://www.w3.org/2000/svg" width="512px" height="512px" viewBox="0 0 5120 5120" preserveAspectRatio="xMidYMid meet">
<g id="layer1" fill="#dbb1ae" stroke="none">
 <path d="M5065 1580 c-3 -5 4 -14 15 -20 16 -8 20 -8 20 4 0 16 -27 29 -35 16z"/>
 </g>
<g id="layer2" fill="#d9554e" stroke="none">
 <path d="M5055 1590 c-3 -5 8 -16 25 -25 24 -13 30 -13 30 -2 0 17 -47 40 -55 27z"/>
 </g>
<g id="layer3" fill="#e0d9d9" stroke="none">
 <path d="M3986 2151 c-6 -8 5 -20 31 -35 23 -13 22 12 -2 28 -13 9 -26 12 -29 7z"/>
 <path d="M4205 2031 c-3 -6 3 -15 14 -21 12 -6 22 -6 26 -1 3 6 -3 15 -14 21 -12 6 -22 6 -26 1z"/>
 <path d="M4385 1941 c-5 -10 8 -22 42 -40 37 -19 35 6 -2 28 -19 11 -37 16 -40 12z"/>
 <path d="M4596 1831 c-6 -8 5 -20 31 -35 23 -13 22 12 -2 28 -13 9 -26 12 -29 7z"/>
 <path d="M4815 1711 c-3 -6 3 -15 14 -21 12 -6 22 -6 26 -1 3 6 -3 15 -14 21 -12 6 -22 6 -26 1z"/>
 <path d="M4779 1524 c-101 -69 -188 -130 -193 -135 -6 -5 -3 -23 9 -46 10 -21 19 -42 20 -48 2 -17 22 -8 263 117 160 83 232 125 232 137 0 9 -12 23 -28 32 -15 8 -48 27 -73 42 l-46 27 -184 -126z"/>
 </g>
<g id="layer4" fill="#fdfdfd" stroke="none">
 <path d="M3837 2223 c-10 -9 -8 -1341 1 -1347 9 -6 799 405 846 440 17 12 25 24 19 27 -6 4 -22 -2 -36 -13 -14 -11 -28 -20 -31 -20 -10 0 -37 60 -31 69 3 5 86 65 185 132 98 68 176 127 173 132 -3 5 -38 25 -77 45 -39 19 -120 61 -181 93 -60 32 -155 82 -210 110 -55 28 -145 76 -200 105 -55 29 -145 77 -200 105 -55 28 -131 69 -170 90 -75 41 -78 42 -88 32z"/>
 </g>
<g id="layer5" fill="#b52921" stroke="none">
 <path d="M1285 3549 c-3 -8 -6 -307 -8 -665 l-2 -650 -635 333 -635 333 -3 -672 c-1 -369 0 -673 2 -676 3 -2 69 30 148 71 79 41 343 179 588 307 245 128 465 244 490 259 25 14 47 26 50 26 3 0 57 28 120 61 63 34 143 76 178 93 34 17 62 36 62 43 0 6 3 9 6 5 9 -9 204 91 204 105 0 6 3 8 7 5 7 -8 382 184 431 220 17 13 32 21 32 18 0 -3 32 11 70 30 39 19 70 40 70 45 0 6 3 9 8 7 4 -1 27 7 50 17 43 19 43 19 88 -2 33 -16 46 -19 49 -10 7 18 -74 170 -86 163 -5 -4 -9 -28 -9 -54 0 -26 -3 -50 -6 -54 -3 -3 -23 5 -43 17 -38 25 -1174 620 -1203 631 -11 4 -20 2 -23 -6z"/>
 <path d="M3837 3184 c-4 -4 -7 -216 -7 -471 0 -254 -2 -463 -5 -463 -3 0 -32 13 -65 30 -33 17 -62 26 -65 20 -6 -10 121 -77 145 -76 13 1 15 62 18 475 1 261 -2 479 -6 483 -5 5 -11 5 -15 2z"/>
 <path d="M2665 2840 c-3 -5 30 -27 74 -50 45 -22 83 -35 86 -30 3 5 -30 27 -74 50 -45 22 -83 35 -86 30z"/>
 <path d="M2875 2730 c-3 -5 26 -25 64 -45 39 -19 73 -31 76 -25 3 5 -26 25 -64 45 -39 19 -73 31 -76 25z"/>
 <path d="M3065 2630 c-3 -5 30 -27 74 -50 45 -22 83 -35 86 -30 3 5 -30 27 -74 50 -45 22 -83 35 -86 30z"/>
 <path d="M3275 2520 c-3 -5 30 -27 74 -50 45 -22 83 -35 86 -30 3 5 -30 27 -74 50 -45 22 -83 35 -86 30z"/>
 <path d="M3485 2410 c-3 -5 26 -25 64 -45 39 -19 73 -31 76 -25 3 5 -26 25 -64 45 -39 19 -73 31 -76 25z"/>
 </g>
<g id="layer6" fill="#b22720" stroke="none">
 <path d="M2567 4244 c-4 -4 -7 -281 -7 -616 l0 -608 35 -71 36 -70 -29 15 c-16 8 -32 13 -35 10 -3 -3 -16 2 -29 10 -26 17 -45 11 -29 -8 7 -8 -64 -50 -225 -134 -129 -68 -232 -128 -228 -133 5 -9 221 98 431 213 l71 39 389 -205 c778 -409 888 -465 895 -458 5 5 7 312 6 683 l-3 674 -625 328 c-706 371 -644 340 -653 331z"/>
 <path d="M1277 3563 c-4 -3 -7 -303 -7 -665 0 -649 0 -659 -19 -648 -13 6 -22 7 -26 0 -3 -5 8 -16 24 -25 28 -14 31 -14 41 4 6 13 10 238 10 665 l0 646 69 -35 c40 -19 73 -31 76 -25 3 5 -30 28 -74 50 -89 44 -85 43 -94 33z"/>
 <path d="M1495 3450 c-3 -5 26 -25 64 -45 39 -19 73 -31 76 -25 3 5 -26 25 -64 45 -39 19 -73 31 -76 25z"/>
 <path d="M1685 3350 c-3 -5 30 -27 74 -50 45 -22 83 -35 86 -30 3 5 -30 27 -74 50 -45 22 -83 35 -86 30z"/>
 <path d="M1895 3240 c-3 -5 30 -27 74 -50 45 -22 83 -35 86 -30 3 5 -30 27 -74 50 -45 22 -83 35 -86 30z"/>
 <path d="M2105 3130 c-3 -5 30 -27 74 -50 45 -22 83 -35 86 -30 3 5 -30 27 -74 50 -45 22 -83 35 -86 30z"/>
 <path d="M2295 3030 c-3 -5 21 -23 54 -40 34 -17 63 -26 66 -20 3 5 -21 23 -54 40 -34 17 -63 26 -66 20z"/>
 <path d="M10 2887 c0 -16 87 -60 95 -47 3 5 -17 21 -45 35 -35 18 -50 21 -50 12z"/>
 <path d="M215 2780 c-3 -5 17 -21 44 -35 29 -14 52 -21 56 -15 3 5 -17 21 -44 35 -29 14 -52 21 -56 15z"/>
 <path d="M405 2680 c-3 -5 17 -21 44 -35 29 -14 52 -21 56 -15 3 5 -17 21 -44 35 -29 14 -52 21 -56 15z"/>
 <path d="M1783 2507 c-139 -72 -252 -136 -250 -142 3 -13 -15 -22 267 126 137 72 247 135 244 140 -3 5 -6 9 -7 9 -1 0 -116 -60 -254 -133z"/>
 <path d="M615 2570 c-3 -5 17 -21 44 -35 29 -14 52 -21 56 -15 3 5 -17 21 -44 35 -29 14 -52 21 -56 15z"/>
 <path d="M825 2460 c-3 -5 17 -21 44 -35 29 -14 52 -21 56 -15 3 5 -17 21 -44 35 -29 14 -52 21 -56 15z"/>
 <path d="M1015 2360 c-3 -5 21 -23 54 -40 34 -17 63 -26 66 -20 3 5 -21 23 -54 40 -34 17 -63 26 -66 20z"/>
 <path d="M1387 2299 c-21 -11 -35 -24 -32 -29 4 -6 23 -1 46 10 22 12 37 25 34 30 -7 12 -2 13 -48 -11z"/>
 </g>
<g id="layer7" fill="#9b2b26" stroke="none">
 <path d="M1278 3587 c-869 -456 -1278 -676 -1278 -686 0 -11 207 -125 635 -349 350 -183 640 -332 646 -330 6 2 9 237 9 666 l0 663 32 -17 c82 -42 853 -447 1031 -541 110 -59 204 -102 212 -99 13 5 15 91 13 682 -2 441 -6 678 -13 680 -5 1 -585 -300 -1287 -669z"/>
 </g>
<g id="layer8" fill="#e72218" stroke="none">
 <path d="M4520 2592 c-322 -169 -607 -320 -635 -334 -53 -28 -425 -223 -977 -512 -186 -97 -342 -176 -348 -176 -5 0 -293 149 -640 331 -347 181 -635 327 -640 324 -12 -8 -14 -1341 -2 -1349 5 -3 295 145 645 329 l637 333 637 -334 c351 -183 641 -330 645 -326 4 4 9 305 10 669 l3 662 590 -310 c325 -171 609 -318 633 -329 l42 -19 0 675 c0 371 -3 674 -7 674 -5 -1 -271 -139 -593 -308z"/>
 </g>
<g id="layer9" fill="#ce261c" stroke="none">
 <path d="M3842 3568 c-8 -8 -9 -196 -5 -671 6 -614 5 -660 -10 -654 -10 4 -296 153 -637 332 -341 179 -624 325 -630 325 -8 0 -436 -223 -1325 -690 -353 -186 -933 -489 -1073 -561 -109 -56 -161 -89 -159 -99 3 -18 1268 -683 1279 -672 4 4 9 305 10 669 l3 661 610 -320 c336 -176 621 -325 635 -331 22 -8 65 11 365 168 482 252 921 481 985 515 30 16 319 168 642 337 395 207 588 313 588 324 0 10 -198 119 -617 339 -340 178 -625 327 -634 331 -9 5 -21 3 -27 -3z"/>
 </g>

</svg>